<mxfile host="app.diagrams.net" agent="Mozilla/5.0 (Windows NT 10.0; Win64; x64) AppleWebKit/537.36 (KHTML, like Gecko) Chrome/132.0.0.0 Safari/537.36" version="26.0.14">
  <diagram name="Page-1" id="8npAcL2PqwZ66D1vvTAy">
    <mxGraphModel dx="2092" dy="728" grid="0" gridSize="10" guides="1" tooltips="1" connect="1" arrows="1" fold="1" page="0" pageScale="1" pageWidth="850" pageHeight="1100" math="0" shadow="0">
      <root>
        <mxCell id="0" />
        <mxCell id="1" parent="0" />
        <mxCell id="5IqhMuTNuEeVK6-_VnFR-1" value="&lt;font style=&quot;font-size: 15px;&quot;&gt;AWS Cloud&lt;/font&gt;" style="points=[[0,0],[0.25,0],[0.5,0],[0.75,0],[1,0],[1,0.25],[1,0.5],[1,0.75],[1,1],[0.75,1],[0.5,1],[0.25,1],[0,1],[0,0.75],[0,0.5],[0,0.25]];outlineConnect=0;gradientColor=none;html=1;whiteSpace=wrap;fontSize=12;fontStyle=0;container=1;pointerEvents=0;collapsible=0;recursiveResize=0;shape=mxgraph.aws4.group;grIcon=mxgraph.aws4.group_aws_cloud;strokeColor=#232F3E;fillColor=none;verticalAlign=top;align=left;spacingLeft=30;fontColor=#232F3E;dashed=0;" parent="1" vertex="1">
          <mxGeometry x="-310" y="160" width="1160" height="760" as="geometry" />
        </mxCell>
        <mxCell id="5IqhMuTNuEeVK6-_VnFR-34" value="" style="sketch=0;points=[[0,0,0],[0.25,0,0],[0.5,0,0],[0.75,0,0],[1,0,0],[0,1,0],[0.25,1,0],[0.5,1,0],[0.75,1,0],[1,1,0],[0,0.25,0],[0,0.5,0],[0,0.75,0],[1,0.25,0],[1,0.5,0],[1,0.75,0]];outlineConnect=0;fontColor=#232F3E;fillColor=#8C4FFF;strokeColor=#ffffff;dashed=0;verticalLabelPosition=bottom;verticalAlign=top;align=center;html=1;fontSize=12;fontStyle=0;aspect=fixed;shape=mxgraph.aws4.resourceIcon;resIcon=mxgraph.aws4.route_53;" parent="5IqhMuTNuEeVK6-_VnFR-1" vertex="1">
          <mxGeometry x="30" y="335" width="78" height="78" as="geometry" />
        </mxCell>
        <mxCell id="5IqhMuTNuEeVK6-_VnFR-2" value="&lt;font style=&quot;font-size: 15px;&quot;&gt;Region: US East (N.Virginia) us-east-1&lt;/font&gt;" style="points=[[0,0],[0.25,0],[0.5,0],[0.75,0],[1,0],[1,0.25],[1,0.5],[1,0.75],[1,1],[0.75,1],[0.5,1],[0.25,1],[0,1],[0,0.75],[0,0.5],[0,0.25]];outlineConnect=0;gradientColor=none;html=1;whiteSpace=wrap;fontSize=12;fontStyle=0;container=1;pointerEvents=0;collapsible=0;recursiveResize=0;shape=mxgraph.aws4.group;grIcon=mxgraph.aws4.group_region;strokeColor=#00A4A6;fillColor=none;verticalAlign=top;align=left;spacingLeft=30;fontColor=#147EBA;dashed=1;" parent="1" vertex="1">
          <mxGeometry x="-190" y="190" width="1010" height="690" as="geometry" />
        </mxCell>
        <mxCell id="5IqhMuTNuEeVK6-_VnFR-28" value="&lt;b&gt;IAM ROLE&lt;/b&gt;&lt;div&gt;&lt;b&gt;&amp;nbsp;WITH&amp;nbsp;&lt;/b&gt;&lt;/div&gt;&lt;div&gt;&lt;b&gt;S3 POLICY&lt;/b&gt;&lt;/div&gt;" style="sketch=0;outlineConnect=0;fontColor=#232F3E;gradientColor=none;fillColor=#DD344C;strokeColor=none;dashed=0;verticalLabelPosition=bottom;verticalAlign=top;align=center;html=1;fontSize=12;fontStyle=0;aspect=fixed;pointerEvents=1;shape=mxgraph.aws4.role;" parent="5IqhMuTNuEeVK6-_VnFR-2" vertex="1">
          <mxGeometry x="28" y="46" width="78" height="44" as="geometry" />
        </mxCell>
        <mxCell id="5IqhMuTNuEeVK6-_VnFR-29" value="&lt;b&gt;AMI&lt;/b&gt;" style="outlineConnect=0;dashed=0;verticalLabelPosition=bottom;verticalAlign=top;align=center;html=1;shape=mxgraph.aws3.ami;fillColor=#F58534;gradientColor=none;" parent="5IqhMuTNuEeVK6-_VnFR-2" vertex="1">
          <mxGeometry x="30" y="150" width="80" height="73" as="geometry" />
        </mxCell>
        <mxCell id="5IqhMuTNuEeVK6-_VnFR-30" value="&lt;b&gt;&lt;font style=&quot;font-size: 13px;&quot;&gt;SNS&lt;/font&gt;&lt;/b&gt;" style="sketch=0;points=[[0,0,0],[0.25,0,0],[0.5,0,0],[0.75,0,0],[1,0,0],[0,1,0],[0.25,1,0],[0.5,1,0],[0.75,1,0],[1,1,0],[0,0.25,0],[0,0.5,0],[0,0.75,0],[1,0.25,0],[1,0.5,0],[1,0.75,0]];outlineConnect=0;fontColor=#232F3E;fillColor=#E7157B;strokeColor=#ffffff;dashed=0;verticalLabelPosition=bottom;verticalAlign=top;align=center;html=1;fontSize=12;fontStyle=0;aspect=fixed;shape=mxgraph.aws4.resourceIcon;resIcon=mxgraph.aws4.sns;" parent="5IqhMuTNuEeVK6-_VnFR-2" vertex="1">
          <mxGeometry x="40" y="410" width="60" height="60" as="geometry" />
        </mxCell>
        <mxCell id="5IqhMuTNuEeVK6-_VnFR-31" value="&lt;b&gt;Certificate&lt;/b&gt;&lt;div&gt;&lt;b&gt;Manager&lt;/b&gt;&lt;/div&gt;" style="sketch=0;points=[[0,0,0],[0.25,0,0],[0.5,0,0],[0.75,0,0],[1,0,0],[0,1,0],[0.25,1,0],[0.5,1,0],[0.75,1,0],[1,1,0],[0,0.25,0],[0,0.5,0],[0,0.75,0],[1,0.25,0],[1,0.5,0],[1,0.75,0]];outlineConnect=0;fontColor=#232F3E;fillColor=#DD344C;strokeColor=#ffffff;dashed=0;verticalLabelPosition=bottom;verticalAlign=top;align=center;html=1;fontSize=12;fontStyle=0;aspect=fixed;shape=mxgraph.aws4.resourceIcon;resIcon=mxgraph.aws4.certificate_manager_3;" parent="5IqhMuTNuEeVK6-_VnFR-2" vertex="1">
          <mxGeometry x="38" y="490" width="58" height="58" as="geometry" />
        </mxCell>
        <mxCell id="5IqhMuTNuEeVK6-_VnFR-32" value="&lt;b&gt;AWS S3&lt;/b&gt;" style="sketch=0;outlineConnect=0;fontColor=#232F3E;gradientColor=none;fillColor=#7AA116;strokeColor=none;dashed=0;verticalLabelPosition=bottom;verticalAlign=top;align=center;html=1;fontSize=12;fontStyle=0;aspect=fixed;pointerEvents=1;shape=mxgraph.aws4.bucket_with_objects;" parent="5IqhMuTNuEeVK6-_VnFR-2" vertex="1">
          <mxGeometry x="40.61" y="600" width="58.77" height="61.12" as="geometry" />
        </mxCell>
        <mxCell id="5IqhMuTNuEeVK6-_VnFR-38" value="" style="endArrow=classic;startArrow=classic;html=1;rounded=0;strokeWidth=3;" parent="5IqhMuTNuEeVK6-_VnFR-2" target="5IqhMuTNuEeVK6-_VnFR-27" edge="1">
          <mxGeometry width="50" height="50" relative="1" as="geometry">
            <mxPoint x="-10" y="345.28999999999996" as="sourcePoint" />
            <mxPoint x="90" y="344.28999999999996" as="targetPoint" />
          </mxGeometry>
        </mxCell>
        <mxCell id="5IqhMuTNuEeVK6-_VnFR-3" value="&lt;font style=&quot;color: rgb(0, 0, 0);&quot;&gt;&lt;b&gt;DEV VPC - 10.0.0.0/16&lt;/b&gt;&lt;/font&gt;" style="points=[[0,0],[0.25,0],[0.5,0],[0.75,0],[1,0],[1,0.25],[1,0.5],[1,0.75],[1,1],[0.75,1],[0.5,1],[0.25,1],[0,1],[0,0.75],[0,0.5],[0,0.25]];outlineConnect=0;gradientColor=none;html=1;whiteSpace=wrap;fontSize=12;fontStyle=0;container=1;pointerEvents=0;collapsible=0;recursiveResize=0;shape=mxgraph.aws4.group;grIcon=mxgraph.aws4.group_vpc2;strokeColor=#8C4FFF;fillColor=none;verticalAlign=top;align=left;spacingLeft=30;fontColor=#AAB7B8;dashed=0;" parent="1" vertex="1">
          <mxGeometry x="-30" y="230" width="830" height="630" as="geometry" />
        </mxCell>
        <mxCell id="5IqhMuTNuEeVK6-_VnFR-7" value="&lt;font style=&quot;color: rgb(0, 0, 0);&quot;&gt;&lt;b&gt;Availability Zone 2: us-east-1b&lt;/b&gt;&lt;/font&gt;" style="fillColor=none;strokeColor=#147EBA;dashed=1;verticalAlign=top;fontStyle=0;fontColor=#147EBA;whiteSpace=wrap;html=1;align=center;perimeterSpacing=10;strokeWidth=3;" parent="5IqhMuTNuEeVK6-_VnFR-3" vertex="1">
          <mxGeometry x="50" y="370" width="760" height="200" as="geometry" />
        </mxCell>
        <mxCell id="5IqhMuTNuEeVK6-_VnFR-12" value="&lt;font style=&quot;font-size: 10px;&quot; color=&quot;#000000&quot;&gt;&lt;b&gt;Public Subnet AZ2:10.0.1.0/24&lt;/b&gt;&lt;/font&gt;" style="sketch=0;outlineConnect=0;html=1;whiteSpace=wrap;fontSize=12;fontStyle=0;shape=mxgraph.aws4.group;grIcon=mxgraph.aws4.group_subnet;strokeColor=#2D7600;fillColor=#A1FF8E;verticalAlign=top;align=left;spacingLeft=30;fontColor=#ffffff;dashed=0;" parent="5IqhMuTNuEeVK6-_VnFR-3" vertex="1">
          <mxGeometry x="70" y="410" width="200" height="130" as="geometry" />
        </mxCell>
        <mxCell id="5IqhMuTNuEeVK6-_VnFR-15" value="&lt;font style=&quot;font-size: 10px;&quot; color=&quot;#000000&quot;&gt;&lt;b&gt;Private App Subnet AZ1:10.0.3.0/24&lt;/b&gt;&lt;/font&gt;" style="sketch=0;outlineConnect=0;html=1;whiteSpace=wrap;fontSize=12;fontStyle=0;shape=mxgraph.aws4.group;grIcon=mxgraph.aws4.group_subnet;strokeColor=#006EAF;fillColor=#96F4FF;verticalAlign=top;align=left;spacingLeft=30;fontColor=#ffffff;dashed=0;" parent="5IqhMuTNuEeVK6-_VnFR-3" vertex="1">
          <mxGeometry x="310" y="410" width="200" height="130" as="geometry" />
        </mxCell>
        <mxCell id="5IqhMuTNuEeVK6-_VnFR-16" value="&lt;font style=&quot;font-size: 10px;&quot; color=&quot;#000000&quot;&gt;&lt;b&gt;Private Data Subnet AZ1:10.0.5.0/24&lt;/b&gt;&lt;/font&gt;" style="sketch=0;outlineConnect=0;html=1;whiteSpace=wrap;fontSize=12;fontStyle=0;shape=mxgraph.aws4.group;grIcon=mxgraph.aws4.group_subnet;strokeColor=#006EAF;fillColor=#96F4FF;verticalAlign=top;align=left;spacingLeft=30;fontColor=#ffffff;dashed=0;" parent="5IqhMuTNuEeVK6-_VnFR-3" vertex="1">
          <mxGeometry x="550" y="410" width="220" height="130" as="geometry" />
        </mxCell>
        <mxCell id="5IqhMuTNuEeVK6-_VnFR-19" value="&lt;b&gt;Webserver&lt;/b&gt;" style="sketch=0;points=[[0,0,0],[0.25,0,0],[0.5,0,0],[0.75,0,0],[1,0,0],[0,1,0],[0.25,1,0],[0.5,1,0],[0.75,1,0],[1,1,0],[0,0.25,0],[0,0.5,0],[0,0.75,0],[1,0.25,0],[1,0.5,0],[1,0.75,0]];outlineConnect=0;fontColor=#232F3E;fillColor=#ED7100;strokeColor=#ffffff;dashed=0;verticalLabelPosition=bottom;verticalAlign=top;align=center;html=1;fontSize=12;fontStyle=0;aspect=fixed;shape=mxgraph.aws4.resourceIcon;resIcon=mxgraph.aws4.ec2;" parent="5IqhMuTNuEeVK6-_VnFR-3" vertex="1">
          <mxGeometry x="370" y="440.5" width="69" height="69" as="geometry" />
        </mxCell>
        <mxCell id="5IqhMuTNuEeVK6-_VnFR-21" value="&lt;b&gt;NAT Gateway&lt;/b&gt;" style="sketch=0;outlineConnect=0;fontColor=#232F3E;gradientColor=none;fillColor=#8C4FFF;strokeColor=none;dashed=0;verticalLabelPosition=bottom;verticalAlign=top;align=center;html=1;fontSize=12;fontStyle=0;aspect=fixed;pointerEvents=1;shape=mxgraph.aws4.nat_gateway;direction=south;" parent="5IqhMuTNuEeVK6-_VnFR-3" vertex="1">
          <mxGeometry x="140" y="439.5" width="69" height="69" as="geometry" />
        </mxCell>
        <mxCell id="5IqhMuTNuEeVK6-_VnFR-22" value="&lt;b&gt;Master DB&lt;/b&gt;" style="sketch=0;outlineConnect=0;fontColor=#232F3E;gradientColor=none;fillColor=#C925D1;strokeColor=none;dashed=0;verticalLabelPosition=bottom;verticalAlign=top;align=center;html=1;fontSize=12;fontStyle=0;aspect=fixed;pointerEvents=1;shape=mxgraph.aws4.rds_instance;" parent="5IqhMuTNuEeVK6-_VnFR-3" vertex="1">
          <mxGeometry x="630" y="439.5" width="70" height="70" as="geometry" />
        </mxCell>
        <mxCell id="5IqhMuTNuEeVK6-_VnFR-25" value="&lt;b&gt;&lt;font style=&quot;font-size: 13px;&quot;&gt;Application&lt;/font&gt;&lt;/b&gt;&lt;div&gt;&lt;b&gt;&lt;font style=&quot;font-size: 13px;&quot;&gt;Load Balancer&lt;/font&gt;&lt;/b&gt;&lt;/div&gt;" style="sketch=0;outlineConnect=0;fontColor=#232F3E;gradientColor=none;fillColor=#8C4FFF;strokeColor=none;dashed=0;verticalLabelPosition=bottom;verticalAlign=top;align=center;html=1;fontSize=12;fontStyle=0;aspect=fixed;pointerEvents=1;shape=mxgraph.aws4.application_load_balancer;" parent="5IqhMuTNuEeVK6-_VnFR-3" vertex="1">
          <mxGeometry x="130" y="266" width="64" height="64" as="geometry" />
        </mxCell>
        <mxCell id="5IqhMuTNuEeVK6-_VnFR-26" value="&lt;b&gt;&lt;font style=&quot;font-size: 14px;&quot;&gt;Auto Scaling&lt;/font&gt;&lt;/b&gt;" style="sketch=0;outlineConnect=0;fontColor=#232F3E;gradientColor=none;fillColor=#ED7100;strokeColor=none;dashed=0;verticalLabelPosition=bottom;verticalAlign=top;align=center;html=1;fontSize=12;fontStyle=0;aspect=fixed;pointerEvents=1;shape=mxgraph.aws4.auto_scaling2;" parent="5IqhMuTNuEeVK6-_VnFR-3" vertex="1">
          <mxGeometry x="384.5" y="274.5" width="61" height="61" as="geometry" />
        </mxCell>
        <mxCell id="5IqhMuTNuEeVK6-_VnFR-27" value="&lt;b&gt;&lt;font style=&quot;font-size: 13px;&quot;&gt;Internet&amp;nbsp;&lt;/font&gt;&lt;/b&gt;&lt;div&gt;&lt;b&gt;&lt;font style=&quot;font-size: 13px;&quot;&gt;Gateway&lt;/font&gt;&lt;/b&gt;&lt;/div&gt;" style="sketch=0;outlineConnect=0;fontColor=#232F3E;gradientColor=none;fillColor=#8C4FFF;strokeColor=none;dashed=0;verticalLabelPosition=bottom;verticalAlign=top;align=center;html=1;fontSize=12;fontStyle=0;aspect=fixed;pointerEvents=1;shape=mxgraph.aws4.internet_gateway;" parent="5IqhMuTNuEeVK6-_VnFR-3" vertex="1">
          <mxGeometry x="-40" y="266" width="78" height="78" as="geometry" />
        </mxCell>
        <mxCell id="5IqhMuTNuEeVK6-_VnFR-39" value="" style="endArrow=classic;startArrow=classic;html=1;rounded=0;strokeWidth=3;entryX=0.068;entryY=0.586;entryDx=0;entryDy=0;entryPerimeter=0;" parent="5IqhMuTNuEeVK6-_VnFR-3" target="5IqhMuTNuEeVK6-_VnFR-25" edge="1">
          <mxGeometry width="50" height="50" relative="1" as="geometry">
            <mxPoint x="30" y="304.29" as="sourcePoint" />
            <mxPoint x="120" y="304.29" as="targetPoint" />
          </mxGeometry>
        </mxCell>
        <mxCell id="5IqhMuTNuEeVK6-_VnFR-41" value="" style="endArrow=classic;html=1;rounded=0;entryX=0.985;entryY=0.388;entryDx=0;entryDy=0;entryPerimeter=0;strokeWidth=3;" parent="5IqhMuTNuEeVK6-_VnFR-3" target="5IqhMuTNuEeVK6-_VnFR-25" edge="1">
          <mxGeometry width="50" height="50" relative="1" as="geometry">
            <mxPoint x="280" y="291" as="sourcePoint" />
            <mxPoint x="209" y="291" as="targetPoint" />
          </mxGeometry>
        </mxCell>
        <mxCell id="5IqhMuTNuEeVK6-_VnFR-42" value="" style="endArrow=classic;html=1;rounded=0;entryX=0.985;entryY=0.388;entryDx=0;entryDy=0;entryPerimeter=0;strokeWidth=3;" parent="5IqhMuTNuEeVK6-_VnFR-3" edge="1">
          <mxGeometry width="50" height="50" relative="1" as="geometry">
            <mxPoint x="280" y="320.46" as="sourcePoint" />
            <mxPoint x="194" y="320" as="targetPoint" />
          </mxGeometry>
        </mxCell>
        <mxCell id="5IqhMuTNuEeVK6-_VnFR-45" value="" style="endArrow=none;html=1;rounded=0;strokeWidth=3;entryX=0.333;entryY=0.455;entryDx=0;entryDy=0;entryPerimeter=0;" parent="5IqhMuTNuEeVK6-_VnFR-3" target="5IqhMuTNuEeVK6-_VnFR-4" edge="1">
          <mxGeometry width="50" height="50" relative="1" as="geometry">
            <mxPoint x="280" y="290" as="sourcePoint" />
            <mxPoint x="280" y="210" as="targetPoint" />
          </mxGeometry>
        </mxCell>
        <mxCell id="5IqhMuTNuEeVK6-_VnFR-47" value="" style="endArrow=none;html=1;rounded=0;strokeWidth=3;" parent="5IqhMuTNuEeVK6-_VnFR-3" edge="1">
          <mxGeometry width="50" height="50" relative="1" as="geometry">
            <mxPoint x="280" y="400" as="sourcePoint" />
            <mxPoint x="280" y="320" as="targetPoint" />
            <Array as="points">
              <mxPoint x="280" y="370" />
            </Array>
          </mxGeometry>
        </mxCell>
        <mxCell id="5IqhMuTNuEeVK6-_VnFR-50" value="" style="endArrow=none;html=1;rounded=0;strokeWidth=3;" parent="5IqhMuTNuEeVK6-_VnFR-3" edge="1">
          <mxGeometry width="50" height="50" relative="1" as="geometry">
            <mxPoint x="280" y="500" as="sourcePoint" />
            <mxPoint x="280" y="390" as="targetPoint" />
          </mxGeometry>
        </mxCell>
        <mxCell id="5IqhMuTNuEeVK6-_VnFR-57" value="" style="endArrow=classic;html=1;rounded=0;strokeWidth=3;" parent="5IqhMuTNuEeVK6-_VnFR-3" edge="1">
          <mxGeometry width="50" height="50" relative="1" as="geometry">
            <mxPoint x="280" y="500" as="sourcePoint" />
            <mxPoint x="370" y="500" as="targetPoint" />
          </mxGeometry>
        </mxCell>
        <mxCell id="5IqhMuTNuEeVK6-_VnFR-58" value="" style="endArrow=classic;startArrow=classic;html=1;rounded=0;exitX=1;exitY=0.5;exitDx=0;exitDy=0;exitPerimeter=0;strokeWidth=3;" parent="5IqhMuTNuEeVK6-_VnFR-3" source="5IqhMuTNuEeVK6-_VnFR-19" target="5IqhMuTNuEeVK6-_VnFR-22" edge="1">
          <mxGeometry width="50" height="50" relative="1" as="geometry">
            <mxPoint x="500" y="499" as="sourcePoint" />
            <mxPoint x="550" y="449" as="targetPoint" />
          </mxGeometry>
        </mxCell>
        <mxCell id="5IqhMuTNuEeVK6-_VnFR-60" value="" style="endArrow=none;html=1;rounded=0;strokeWidth=3;" parent="5IqhMuTNuEeVK6-_VnFR-3" edge="1">
          <mxGeometry width="50" height="50" relative="1" as="geometry">
            <mxPoint x="530" y="470" as="sourcePoint" />
            <mxPoint x="530" y="150" as="targetPoint" />
          </mxGeometry>
        </mxCell>
        <mxCell id="5IqhMuTNuEeVK6-_VnFR-69" value="" style="endArrow=classic;html=1;rounded=0;strokeWidth=3;" parent="5IqhMuTNuEeVK6-_VnFR-3" target="5IqhMuTNuEeVK6-_VnFR-27" edge="1">
          <mxGeometry width="50" height="50" relative="1" as="geometry">
            <mxPoint x="170" y="480" as="sourcePoint" />
            <mxPoint x="220" y="430" as="targetPoint" />
          </mxGeometry>
        </mxCell>
        <mxCell id="5IqhMuTNuEeVK6-_VnFR-4" value="&lt;font style=&quot;color: rgb(0, 0, 0);&quot;&gt;&lt;b&gt;Availability Zone 1: us-east-1a&lt;/b&gt;&lt;/font&gt;" style="fillColor=none;strokeColor=#147EBA;dashed=1;verticalAlign=top;fontStyle=0;fontColor=#147EBA;whiteSpace=wrap;html=1;perimeterSpacing=10;strokeWidth=3;" parent="1" vertex="1">
          <mxGeometry y="280" width="760" height="200" as="geometry" />
        </mxCell>
        <mxCell id="5IqhMuTNuEeVK6-_VnFR-8" value="&lt;font style=&quot;font-size: 10px;&quot; color=&quot;#000000&quot;&gt;&lt;b&gt;Public Subnet AZ1:10.0.0.0/24&lt;/b&gt;&lt;/font&gt;" style="sketch=0;outlineConnect=0;html=1;whiteSpace=wrap;fontSize=12;fontStyle=0;shape=mxgraph.aws4.group;grIcon=mxgraph.aws4.group_subnet;strokeColor=#2D7600;fillColor=#A1FF8E;verticalAlign=top;align=left;spacingLeft=30;fontColor=#ffffff;dashed=0;" parent="1" vertex="1">
          <mxGeometry x="40" y="310" width="200" height="130" as="geometry" />
        </mxCell>
        <mxCell id="5IqhMuTNuEeVK6-_VnFR-13" value="&lt;font style=&quot;font-size: 10px;&quot; color=&quot;#000000&quot;&gt;&lt;b&gt;Private App Subnet AZ1:10.0.2.0/24&lt;/b&gt;&lt;/font&gt;" style="sketch=0;outlineConnect=0;html=1;whiteSpace=wrap;fontSize=12;fontStyle=0;shape=mxgraph.aws4.group;grIcon=mxgraph.aws4.group_subnet;strokeColor=#006EAF;fillColor=#96F4FF;verticalAlign=top;align=left;spacingLeft=30;fontColor=#ffffff;dashed=0;" parent="1" vertex="1">
          <mxGeometry x="280" y="310" width="200" height="130" as="geometry" />
        </mxCell>
        <mxCell id="5IqhMuTNuEeVK6-_VnFR-14" value="&lt;font style=&quot;font-size: 10px;&quot; color=&quot;#000000&quot;&gt;&lt;b&gt;Private Data Subnet AZ1:10.0.4.0/24&lt;/b&gt;&lt;/font&gt;" style="sketch=0;outlineConnect=0;html=1;whiteSpace=wrap;fontSize=12;fontStyle=0;shape=mxgraph.aws4.group;grIcon=mxgraph.aws4.group_subnet;strokeColor=#006EAF;fillColor=#96F4FF;verticalAlign=top;align=left;spacingLeft=30;fontColor=#ffffff;dashed=0;" parent="1" vertex="1">
          <mxGeometry x="520" y="310" width="210" height="130" as="geometry" />
        </mxCell>
        <mxCell id="5IqhMuTNuEeVK6-_VnFR-18" value="&lt;b&gt;Webserver&lt;/b&gt;" style="sketch=0;points=[[0,0,0],[0.25,0,0],[0.5,0,0],[0.75,0,0],[1,0,0],[0,1,0],[0.25,1,0],[0.5,1,0],[0.75,1,0],[1,1,0],[0,0.25,0],[0,0.5,0],[0,0.75,0],[1,0.25,0],[1,0.5,0],[1,0.75,0]];outlineConnect=0;fontColor=#232F3E;fillColor=#ED7100;strokeColor=#ffffff;dashed=0;verticalLabelPosition=bottom;verticalAlign=top;align=center;html=1;fontSize=12;fontStyle=0;aspect=fixed;shape=mxgraph.aws4.resourceIcon;resIcon=mxgraph.aws4.ec2;" parent="1" vertex="1">
          <mxGeometry x="341" y="336" width="78" height="78" as="geometry" />
        </mxCell>
        <mxCell id="5IqhMuTNuEeVK6-_VnFR-20" value="&lt;b&gt;NAT Gateway&lt;/b&gt;" style="sketch=0;outlineConnect=0;fontColor=#232F3E;gradientColor=none;fillColor=#8C4FFF;strokeColor=none;dashed=0;verticalLabelPosition=bottom;verticalAlign=top;align=center;html=1;fontSize=12;fontStyle=0;aspect=fixed;pointerEvents=1;shape=mxgraph.aws4.nat_gateway;" parent="1" vertex="1">
          <mxGeometry x="100" y="350.5" width="59" height="59" as="geometry" />
        </mxCell>
        <mxCell id="5IqhMuTNuEeVK6-_VnFR-24" value="&lt;b&gt;Standby DB&lt;/b&gt;" style="sketch=0;outlineConnect=0;fontColor=#232F3E;gradientColor=none;fillColor=#C925D1;strokeColor=none;dashed=0;verticalLabelPosition=bottom;verticalAlign=top;align=center;html=1;fontSize=12;fontStyle=0;aspect=fixed;pointerEvents=1;shape=mxgraph.aws4.rds_instance;flipV=0;flipH=0;" parent="1" vertex="1">
          <mxGeometry x="590.5" y="341" width="69" height="69" as="geometry" />
        </mxCell>
        <mxCell id="5IqhMuTNuEeVK6-_VnFR-33" value="" style="endArrow=classic;startArrow=classic;html=1;rounded=0;dashed=1;strokeWidth=3;" parent="1" source="5IqhMuTNuEeVK6-_VnFR-16" target="5IqhMuTNuEeVK6-_VnFR-14" edge="1">
          <mxGeometry width="50" height="50" relative="1" as="geometry">
            <mxPoint x="610" y="580" as="sourcePoint" />
            <mxPoint x="626" y="410" as="targetPoint" />
          </mxGeometry>
        </mxCell>
        <mxCell id="5IqhMuTNuEeVK6-_VnFR-35" value="" style="outlineConnect=0;dashed=0;verticalLabelPosition=bottom;verticalAlign=top;align=center;html=1;shape=mxgraph.aws3.users;fillColor=#D2D3D3;gradientColor=none;" parent="1" vertex="1">
          <mxGeometry x="-468" y="495" width="88" height="80" as="geometry" />
        </mxCell>
        <mxCell id="5IqhMuTNuEeVK6-_VnFR-37" value="" style="endArrow=classic;startArrow=classic;html=1;rounded=0;entryX=0;entryY=0.5;entryDx=0;entryDy=0;entryPerimeter=0;strokeWidth=3;" parent="1" source="5IqhMuTNuEeVK6-_VnFR-35" target="5IqhMuTNuEeVK6-_VnFR-34" edge="1">
          <mxGeometry width="50" height="50" relative="1" as="geometry">
            <mxPoint x="-360" y="530" as="sourcePoint" />
            <mxPoint x="-280" y="510" as="targetPoint" />
          </mxGeometry>
        </mxCell>
        <mxCell id="5IqhMuTNuEeVK6-_VnFR-56" value="" style="endArrow=classic;html=1;rounded=0;strokeWidth=3;" parent="1" edge="1">
          <mxGeometry width="50" height="50" relative="1" as="geometry">
            <mxPoint x="250" y="370" as="sourcePoint" />
            <mxPoint x="340" y="370" as="targetPoint" />
          </mxGeometry>
        </mxCell>
        <mxCell id="5IqhMuTNuEeVK6-_VnFR-62" value="" style="endArrow=classic;html=1;rounded=0;entryX=0.885;entryY=0.564;entryDx=0;entryDy=0;entryPerimeter=0;strokeWidth=3;" parent="1" target="5IqhMuTNuEeVK6-_VnFR-18" edge="1">
          <mxGeometry width="50" height="50" relative="1" as="geometry">
            <mxPoint x="500" y="380" as="sourcePoint" />
            <mxPoint x="550" y="330" as="targetPoint" />
          </mxGeometry>
        </mxCell>
        <mxCell id="5IqhMuTNuEeVK6-_VnFR-70" value="" style="endArrow=classic;html=1;rounded=0;strokeWidth=3;" parent="1" source="5IqhMuTNuEeVK6-_VnFR-20" target="5IqhMuTNuEeVK6-_VnFR-27" edge="1">
          <mxGeometry width="50" height="50" relative="1" as="geometry">
            <mxPoint x="40" y="459.5" as="sourcePoint" />
            <mxPoint x="90" y="409.5" as="targetPoint" />
          </mxGeometry>
        </mxCell>
        <mxCell id="OyDG3ECXnvyxclTLvoYw-1" value="" style="points=[];aspect=fixed;html=1;align=center;shadow=0;dashed=0;fillColor=#FF6A00;strokeColor=none;shape=mxgraph.alibaba_cloud.mysql;verticalAlign=bottom;" vertex="1" parent="1">
          <mxGeometry x="-468" y="652" width="101.96" height="95" as="geometry" />
        </mxCell>
        <mxCell id="OyDG3ECXnvyxclTLvoYw-2" value="&lt;b&gt;MySQL&amp;nbsp;&lt;/b&gt;&lt;div&gt;&lt;b&gt;Workbench&lt;/b&gt;&lt;/div&gt;" style="text;html=1;align=center;verticalAlign=middle;whiteSpace=wrap;rounded=0;" vertex="1" parent="1">
          <mxGeometry x="-463" y="760" width="79" height="33" as="geometry" />
        </mxCell>
      </root>
    </mxGraphModel>
  </diagram>
</mxfile>
